<svg xmlns="http://www.w3.org/2000/svg" xmlns:xlink="http://www.w3.org/1999/xlink" viewBox="0 0 15.48 15.49">
  <defs>
    <linearGradient id="Orchid" x1="1.72" y1="7.99" x2="13.72" y2="7.99" gradientUnits="userSpaceOnUse">
      <stop offset="0" stop-color="#ff7bac"/>
      <stop offset="0.22" stop-color="#ff7bac" stop-opacity="0.76"/>
      <stop offset="0.6" stop-color="#ff7bac" stop-opacity="0.36"/>
      <stop offset="0.87" stop-color="#ff7bac" stop-opacity="0.1"/>
      <stop offset="1" stop-color="#ff7bac" stop-opacity="0"/>
    </linearGradient>
    <linearGradient id="Sun" x1="2.6" y1="10.8" x2="15.92" y2="2.89" gradientUnits="userSpaceOnUse">
      <stop offset="0.04" stop-color="#ec80b8"/>
      <stop offset="0.19" stop-color="#ed86b7"/>
      <stop offset="0.4" stop-color="#f098b2"/>
      <stop offset="0.63" stop-color="#f5b5ac"/>
      <stop offset="0.89" stop-color="#fcdda2"/>
      <stop offset="1" stop-color="#ffef9e"/>
    </linearGradient>
  </defs>
  <g id="Layer_2" data-name="Layer 2">
    <g id="Layer_1-2" data-name="Layer 1">
      <g>
        <circle cx="7.72" cy="7.99" r="6" style="fill: url(#Orchid)"/>
        <path d="M15.07,10.24a3.49,3.49,0,0,1-.22.53,6.09,6.09,0,0,1-.47,1h0a7.81,7.81,0,0,1-2,2.23,7.29,7.29,0,0,1-1.17.71c-.23.11-.46.21-.7.3a7.61,7.61,0,0,1-2.37.5,7.8,7.8,0,0,1-4.36-1.1,0,0,0,0,1,0,0A7.66,7.66,0,0,1,.59,10.71L.5,10.49A7.1,7.1,0,0,1,.08,8.83,6.54,6.54,0,0,1,0,7.75,7.74,7.74,0,0,1,.86,4.21h0c.08-.15.16-.3.25-.45h0A7.76,7.76,0,0,1,5,.5,7.89,7.89,0,0,1,7.37,0a7.32,7.32,0,0,1,2,.17,8.06,8.06,0,0,1,2.32.93,0,0,0,0,1,0,0,7.86,7.86,0,0,1,1.55,1.22q.24.25.45.51A7.5,7.5,0,0,1,15,5c0,.14.1.28.14.42a7.46,7.46,0,0,1,.34,1.78A7.59,7.59,0,0,1,15.07,10.24Z" style="fill: url(#Sun)"/>
        <path d="M4.72,3a13.57,13.57,0,0,1,7-1.88,0,0,0,0,1,0,0,7.86,7.86,0,0,1,1.55,1.22q.24.25.45.51A7.5,7.5,0,0,1,15,5c0,.14.1.28.14.42a7.46,7.46,0,0,1,.34,1.78,7.59,7.59,0,0,1-.39,3,3.49,3.49,0,0,1-.22.53,6.09,6.09,0,0,1-.47,1h0a7.81,7.81,0,0,1-2,2.23,7.29,7.29,0,0,1-1.17.71c-.23.11-.46.21-.7.3a7.61,7.61,0,0,1-2.37.5,7.8,7.8,0,0,1-4.36-1.1,0,0,0,0,1,0,0A7.66,7.66,0,0,1,.59,10.71L.5,10.49A7.78,7.78,0,0,1,.08,8.83C0,8,1.4,5,4.72,3Z" style="fill: #e08ab5;isolation: isolate"/>
        <path d="M15.07,10.24a3.49,3.49,0,0,1-.22.53,6.09,6.09,0,0,1-.47,1h0a7.81,7.81,0,0,1-2,2.23,7.29,7.29,0,0,1-1.17.71c-.23.11-.46.21-.7.3a7.61,7.61,0,0,1-2.37.5,7.8,7.8,0,0,1-4.36-1.1,0,0,0,0,1,0,0A7.66,7.66,0,0,1,.59,10.71L.5,10.49A7.1,7.1,0,0,1,.08,8.83a9.4,9.4,0,0,1,1.65-.58A7.88,7.88,0,0,1,3.27,8,8.84,8.84,0,0,0,7.64,6.54,8.44,8.44,0,0,1,12.73,5h.19a9.15,9.15,0,0,1,2.2.42,7.46,7.46,0,0,1,.34,1.78A7.59,7.59,0,0,1,15.07,10.24Z" style="fill: #fdefa8;opacity: 0.300000011920929;isolation: isolate"/>
        <path d="M14.85,10.77a6.09,6.09,0,0,1-.47,1h0a7.81,7.81,0,0,1-2,2.23,7.29,7.29,0,0,1-1.17.71c-.23.11-.46.21-.7.3a7.61,7.61,0,0,1-2.37.5,7.8,7.8,0,0,1-4.36-1.1,0,0,0,0,1,0,0A7.66,7.66,0,0,1,.59,10.71L.5,10.49A7.1,7.1,0,0,1,.08,8.83,6.54,6.54,0,0,1,0,7.75a6.36,6.36,0,0,1,1.83-.88,13.05,13.05,0,0,1,5.81-.33,11.25,11.25,0,0,1,5.78,2.58l.16.15A8.51,8.51,0,0,1,14.85,10.77Z" style="fill: #f198a1;isolation: isolate"/>
      </g>
    </g>
  </g>
</svg>
